<svg class="no-receipt" xmlns="http://www.w3.org/2000/svg" viewBox="0 0 169.8 156.1" width="100px" height="100px"> 
                <defs>
                  <clipPath id="a"
                   transform="translate(7.8 7.8)">
                    <path d="M6.3,70.3A63.08,63.08,0,0,1,22.9,27.4l90.4,90.4A64,64,0,0,1,6.3,70.3Zm128,0a63.08,63.08,0,0,1-16.6,42.9L27.4,22.8A63.93,63.93,0,0,1,134.3,70.3ZM70.3,0a70.3,70.3,0,1,0,70.3,70.3A70.2,70.2,0,0,0,70.3,0Z" fill="#c7c7c7"></path>
                  </clipPath>
                </defs>
                <g  fill="#d9d9d9" clip-path="url(#a)">
                  <rect width="156.1" height="156.1"></rect>
                </g>
                <polygon points="56.8 91.6 52 91.6 52 38.7 169.8 38.7 169.7 53.7 164.9 53.7 164.9 43.5 56.8 43.5 56.8 91.6" fill="#c7c7c7"></polygon>
                <polygon points="169.8 117.2 52 117.2 52 99.4 56.8 99.4 56.8 112.4 164.9 112.4 164.9 65.7 169.7 65.7 169.8 117.2" fill="#c7c7c7"></polygon>
                <path d="M103.1,92.2a22,22,0,1,1,22-22A22.06,22.06,0,0,1,103.1,92.2Zm0-39.3a17.2,17.2,0,1,0,17.2,17.2A17.2,17.2,0,0,0,103.1,52.9Z" transform="translate(7.8 7.8)" fill="#c7c7c7"></path>
                <polygon points="160.1 41.1 155.3 41.1 155.3 31.9 137.3 31.9 137.3 41.1 132.5 41.1 132.5 27.1 160.1 27.1 160.1 41.1" fill="#c7c7c7"></polygon>
              </svg>