<svg xmlns="http://www.w3.org/2000/svg" viewBox="0 0 26 26">
                    <path d="M721.9,412.16c-3.61,0-6.41-1.21-8.34-3.59a13.6,13.6,0,0,1-2.84-8.8v-.9a13.55,13.55,0,0,1,2.86-8.77,10.14,10.14,0,0,1,8.33-3.6,13.79,13.79,0,0,1,5.31,1,11,11,0,0,1,4,2.73l.18.2.14,3.83-1.5.06-.12-3.27a9.56,9.56,0,0,0-3.24-2.15,12.3,12.3,0,0,0-4.74-.87c-3.16,0-5.5,1-7.16,3a12.09,12.09,0,0,0-2.52,7.82v.9a12.15,12.15,0,0,0,2.51,7.85c1.65,2,4,3,7.17,3a9,9,0,0,0,6-2.16,6,6,0,0,0,2.4-4.15h-2.4a4.77,4.77,0,0,1-1.82,3,6.47,6.47,0,0,1-4.18,1.47,5.84,5.84,0,0,1-5.42-2.74,12.22,12.22,0,0,1-1.53-6.33v-.9a12.08,12.08,0,0,1,1.54-6.27,5.83,5.83,0,0,1,5.41-2.76,8.21,8.21,0,0,1,2.94.5,6.41,6.41,0,0,1,2.19,1.34l.15.15.55,2.19-1.46.37-.44-1.76a5.11,5.11,0,0,0-1.53-.88,6.72,6.72,0,0,0-2.4-.4,4.37,4.37,0,0,0-4.12,2,10.62,10.62,0,0,0-1.33,5.5v.9a10.75,10.75,0,0,0,1.31,5.56,4.38,4.38,0,0,0,4.13,2,5,5,0,0,0,3.24-1.13,3.23,3.23,0,0,0,1.33-2.61v-.75h5.1l.25.85a7.27,7.27,0,0,1-2.95,5.95A10.56,10.56,0,0,1,721.9,412.16Z" transform="translate(-708.78 -386.35)"></path>
                    <rect x="704.15" y="398.59" width="35.27" height="1.5" transform="translate(-779.76 241) rotate(-45)"></rect>
                  </svg>