<?xml version="1.0" encoding="utf-8"?>
<!-- Generator: Adobe Illustrator 24.1.2, SVG Export Plug-In . SVG Version: 6.00 Build 0)  -->
<svg version="1.1" id="Capa_1" xmlns="http://www.w3.org/2000/svg" xmlns:xlink="http://www.w3.org/1999/xlink" x="0px" y="0px"
	 viewBox="0 0 511.6 511.6" style="enable-background:new 0 0 511.6 511.6;" xml:space="preserve" height="17px" width="15px">
<style type="text/css">
	.st0{fill:#D9D9D9;}
</style>
<g>
	<g>
		<path class="st0" d="M238,182.7h127.9c2.7,0,4.9-0.4,6.6-1.3c1.7-0.8,2.6-1.9,2.6-3.3v-27.4c0-1.4-0.9-2.4-2.6-3.3
			s-3.9-1.3-6.6-1.3H238c-2.7,0-4.9,0.4-6.6,1.3c-1.7,0.8-2.6,1.9-2.6,3.3v27.4c0,1.4,0.9,2.4,2.6,3.3S235.3,182.7,238,182.7z"/>
		<path class="st0" d="M238,36.5h73.1c2.7,0,4.9-0.5,6.6-1.3s2.6-2,2.6-3.3V4.5c0-1.3-0.8-2.5-2.6-3.3c-1.7-0.9-3.9-1.3-6.6-1.3H238
			c-2.7,0-4.9,0.4-6.6,1.3c-1.7,0.9-2.6,2-2.6,3.3v27.5c0,1.3,0.9,2.5,2.6,3.3C233.1,36,235.3,36.5,238,36.5z"/>
		<path class="st0" d="M196.6,402h-27.4V9.1c0-2.7-0.4-4.9-1.3-6.6c-0.8-1.7-1.9-2.6-3.3-2.6h-27.3c-1.3,0-2.4,0.9-3.3,2.6
			c-0.8,1.7-1.3,3.9-1.3,6.6V402h-27.4c-2.1,0-3.5,1.9-4.3,5.7c-0.8,3.6-0.5,7,1,10l45.7,91.4c1.1,1.7,2.2,2.6,3.3,2.6
			c1.3,0,2.4-0.9,3.3-2.6l45.6-91.1c0.9-2.3,1.4-4.6,1.4-6.8c0-2.7-0.4-4.9-1.3-6.6C199.1,402.8,198,402,196.6,402z"/>
		<path class="st0" d="M482.1,439.8c-1.7-0.9-3.9-1.3-6.6-1.3H238c-2.7,0-4.9,0.4-6.6,1.3c-1.7,0.9-2.6,2-2.6,3.3v27.4
			c0,1.4,0.9,2.4,2.6,3.3c1.7,0.9,3.9,1.3,6.6,1.3h237.5c2.7,0,4.9-0.5,6.6-1.3s2.6-1.9,2.6-3.3v-27.4
			C484.7,441.8,483.8,440.6,482.1,439.8z"/>
		<path class="st0" d="M238,328.8h182.7c2.7,0,4.9-0.5,6.6-1.3s2.6-1.9,2.6-3.3v-27.4c0-1.4-0.9-2.5-2.6-3.3s-3.9-1.3-6.6-1.3H238
			c-2.7,0-4.9,0.4-6.6,1.3c-1.7,0.9-2.6,2-2.6,3.3v27.4c0,1.4,0.9,2.4,2.6,3.3C233.1,328.4,235.3,328.8,238,328.8z"/>
	</g>
</g>
</svg>
