<?xml version="1.0" encoding="UTF-8"?>
<svg width="16px" height="16px" viewBox="0 0 16 16" version="1.1" xmlns="http://www.w3.org/2000/svg" xmlns:xlink="http://www.w3.org/1999/xlink">
    <!-- Generator: sketchtool 50.2 (55047) - http://www.bohemiancoding.com/sketch -->
    <title>672E471D-C13E-49B2-B7CC-C26D84DB68B2</title>
    <desc>Created with sketchtool.</desc>
    <defs></defs>
    <g id="Symbols" stroke="none" stroke-width="1" fill="none" fill-rule="evenodd">
        <g id="icon-magnifying-glass" fill="#bebebe" fill-rule="nonzero">
            <path d="M6,11 C3.23857625,11 1,8.76142375 1,6 C1,3.23857625 3.23857625,1 6,1 C8.76142375,1 11,3.23857625 11,6 C11,8.76142375 8.76142375,11 6,11 Z M6,9.82352941 C8.11167698,9.82352941 9.82352941,8.11167698 9.82352941,6 C9.82352941,3.88832302 8.11167698,2.17647059 6,2.17647059 C3.88832302,2.17647059 2.17647059,3.88832302 2.17647059,6 C2.17647059,8.11167698 3.88832302,9.82352941 6,9.82352941 Z" id="Oval-3" transform="translate(6.000000, 6.000000) rotate(-45.000000) translate(-6.000000, -6.000000) "></path>
            <path d="M11.2123106,8.6587993 C11.2123106,8.32151775 11.4361682,8.04809704 11.7123106,8.04809704 C11.988453,8.04809704 12.2123106,8.32151775 12.2123106,8.6587993 L12.2123106,14.7658219 C12.2123106,15.1031034 11.988453,15.3765242 11.7123106,15.3765242 C11.4361682,15.3765242 11.2123106,15.1031034 11.2123106,14.7658219 L11.2123106,8.6587993 Z" id="Line-4" transform="translate(11.712311, 11.712311) rotate(-45.000000) translate(-11.712311, -11.712311) "></path>
        </g>
    </g>
</svg>
